Simulation
nRows=34
nColumns=15
endheader
time  TH_x TH_y TH_z SC_y  SC_z  SC_x  AC_y  AC_z  AC_x  GH_y  GH_z  GH_yy  EL_x  PS_y
2.4010000000000002  0.000000  0.000000  0.000000  -42.623888314697716  21.85331770182724  33.73535717532399  45.81603280859606  -7.931407225179458  -8.232800934593206  13.140745986880958  9.139161897316358  8.959963482754658  11.234041159783791  120.000000
2.4490200000000004  0.000000  0.000000  0.000000  -40.63185293116959  21.014891610590826  32.09735609785586  45.62816152730268  -7.297234503468271  -8.504355674733734  20.848654263837847  5.042417950051176  5.842087153748809  11.532549881527187  120.000000
2.49704  0.000000  0.000000  0.000000  -38.39802171438222  19.86643514590943  30.354951934094412  45.54134769975784  -6.519709977339731  -8.82831014434198  49.51720771652292  1.7857975344528507  -18.11843961751867  12.09001260560543  120.000000
2.5450600000000003  0.000000  0.000000  0.000000  -36.049742031963554  18.41707165588771  28.504977390510106  45.53822704767692  -5.5801205332749575  -9.221837683002843  150.26706998055727  1.9346254580586169  -114.29917577258215  12.916094316761322  120.000000
2.5930800000000005  0.000000  0.000000  0.000000  -33.74956071297979  16.716760001089096  26.561974890522663  45.60332458378468  -4.462184418693057  -9.676993105540241  168.60961989688633  3.8791838661375393  -128.43941448199877  13.94013018047871  120.000000
2.6411000000000002  0.000000  0.000000  0.000000  -31.675540101059315  14.862894291886223  24.578373356014563  45.73501981038528  -3.1838680373789687  -10.140117450474696  170.69031383750166  5.3490976332992854  -126.8513526246242  15.043872936441032  120.000000
2.6891200000000004  0.000000  0.000000  0.000000  -29.978767183385585  12.980718711819442  22.62319644619703  45.929973025829206  -1.8085633350917063  -10.559855614835898  168.33872026565143  6.330143345627286  -121.46113582584336  16.10688307968841  120.000000
2.7371400000000006  0.000000  0.000000  0.000000  -28.746250308171682  11.188772225750531  20.714687600051054  46.16751751301209  -0.4044458434981958  -10.89098584992162  163.32786077695326  6.934025428672209  -114.06247249526841  17.034650286155497  120.000000
2.7851600000000003  0.000000  0.000000  0.000000  -27.987867441892654  9.576712498570304  18.841719700318027  46.41699707856546  0.9593843306318824  -11.09158880986211  156.28804456845913  7.282354114002073  -105.23921916274017  17.76800923794316  120.000000
2.8331800000000005  0.000000  0.000000  0.000000  -27.64116571858016  8.200955564485461  16.995881050042446  46.64283592732494  2.217005232204201  -11.139635353480683  147.66174545150304  7.486796487542923  -95.34536215595165  18.27829641596204  120.000000
2.8812000000000006  0.000000  0.000000  0.000000  -27.59271943712552  7.078873251666578  15.166146785858677  46.80724979732673  3.333821731467512  -11.029948009966711  137.88400200081324  7.642815857563379  -84.70882152459605  18.55854055765813  120.000000
2.9292200000000004  0.000000  0.000000  0.000000  -27.70264326810189  6.192254993895591  13.346510533132143  46.87687587015697  4.306081054227556  -10.779054131830641  127.41927238585902  7.838737257716143  -73.68590190299594  18.622471607588288  120.000000
2.9772400000000006  0.000000  0.000000  0.000000  -27.83270158634533  5.499210269655072  11.54482351580863  46.836115839154274  5.138510453377821  -10.427393165554491  116.8115786353406  8.158013398419442  -62.72513229896874  18.50746053178495  120.000000
3.0252600000000003  0.000000  0.000000  0.000000  -27.865877953458575  4.947218892555936  9.775449968493552  46.686129383790494  5.8314863039265195  -10.02378388671509  106.7104122142391  8.660840647151666  -52.401776092656824  18.271467914777197  120.000000
3.0732800000000005  0.000000  0.000000  0.000000  -27.73048215896518  4.489969544120886  8.056618981447503  46.43443880078065  6.378781728794043  -9.6105242533764  97.70352035760817  9.366835525883863  -43.254059380721245  17.982811843449326  120.000000
3.1213000000000006  0.000000  0.000000  0.000000  -27.405411440815218  4.096741000013311  6.410796816356765  46.08841733591074  6.773248050867057  -9.219021822693758  90.07859662575032  10.2491952380506  -35.540276481697106  17.70006327769135  120.000000
3.1693200000000004  0.000000  0.000000  0.000000  -26.905959093629107  3.7604805959075587  4.862314300627595  45.65819840387111  7.0137854911459  -8.877076475008765  83.7874113086941  11.260661390544474  -29.195076164346556  17.456247286253465  120.000000
3.2173400000000005  0.000000  0.000000  0.000000  -26.27723820757986  3.485520268266978  3.4365358649804443  45.157111885262445  7.104148815360526  -8.605859798522005  78.59501408544446  12.3541123450168  -23.97733607827236  17.246253036535023  120.000000
3.2653600000000003  0.000000  0.000000  0.000000  -25.57381864212085  3.2745106494065848  2.160638764720237  44.597458112187475  7.0573381604767755  -8.412813825564836  74.22240475624794  13.482851179561854  -19.614477777395408  17.0302536489539  120.000000
3.3133800000000004  0.000000  0.000000  0.000000  -24.85018177790637  3.1299548905226375  1.0601639456014285  44.00318877565649  6.900243969086171  -8.299215766786105  70.39266502616108  14.619388945415544  -15.847439123107936  16.747162526948433  120.000000
3.3614000000000006  0.000000  0.000000  0.000000  -24.15356911702112  3.0520007107933034  0.1564634678767549  43.40467621483915  6.665327534856136  -8.260824183379608  66.84752660927093  15.75703362694678  -12.432124050103598  16.33933048444021  120.000000
3.4094200000000003  0.000000  0.000000  0.000000  -23.51687470110341  3.034357731933785  -0.5462974356496553  42.841410134806715  6.380808901932449  -8.279860121791613  63.34911555513986  16.906011424602404  -9.154607143912472  15.779869643543307  120.000000
3.4574400000000005  0.000000  0.000000  0.000000  -22.966803820976185  3.0632465229896537  -1.064854171210657  42.3525150227374  6.070465527626184  -8.328142104621842  59.71050455329489  18.1007287268585  -5.890420104103844  15.091827620489166  120.000000
3.5054600000000007  0.000000  0.000000  0.000000  -22.527960923935527  3.117803508630259  -1.4211255295857002  41.965362847309926  5.755135605083322  -8.385339166317403  55.83999444373885  19.407251008306762  -2.6438246561177468  14.343263226975589  120.000000
3.5534800000000004  0.000000  0.000000  0.000000  -22.226798642722606  3.1764351321905253  -1.625563288737474  41.70900001184901  5.431966554739842  -8.4334603959006  51.71601094981492  20.9153834623574  0.5112090206575394  13.614815710635023  120.000000
3.6015000000000006  0.000000  0.000000  0.000000  -22.05754038108847  3.227190858943571  -1.6761821278974631  41.62497250374535  5.0670617368119135  -8.447968464749673  47.3340461102529  22.69694296665288  3.515673979427963  12.975638974491254  120.000000
3.6495200000000008  0.000000  0.000000  0.000000  -21.983500537379992  3.266126907363119  -1.5709297376926552  41.77354296963612  4.614400661173066  -8.39940581009693  42.69813975551189  24.787781660729287  6.322049283488859  12.460524251113965  120.000000
3.6975400000000005  0.000000  0.000000  0.000000  -21.96780809462803  3.289663849781541  -1.315960965087155  42.20391627430299  4.044992155786855  -8.250517851945796  37.84791658196982  27.191979313413153  8.873998640606322  12.071119584661108  120.000000
3.7455600000000007  0.000000  0.000000  0.000000  -22.001535916501833  3.280030198206758  -0.9276504485099898  42.92904311210027  3.3856345087330952  -7.979733022880138  32.914015699603496  29.89173609675813  11.069975543599455  11.79340386572624  120.000000
3.7935800000000004  0.000000  0.000000  0.000000  -22.124419024061616  3.223323455366353  -0.40693848249362785  43.93819041205044  2.6968798554696862  -7.590290912941911  28.101565110215585  32.847990536695455  12.784357398102177  11.606287816046473  120.000000
3.8416000000000006  0.000000  0.000000  0.000000  -22.40522429677478  3.123844559209262  0.2707186601021062  45.20910213995625  2.0391345007013197  -7.111520008146561  23.63132242480067  36.003158632090376  13.911141853573353  11.482315297881321  120.000000
3.8896200000000007  0.000000  0.000000  0.000000  -22.921055994991413  2.999678496687197  1.1416076067539809  46.70264263413118  1.4577629257541331  -6.588523989276782  19.693309963689085  39.285529858905285  14.394376180328235  11.39442753720517  120.000000
3.9376400000000005  0.000000  0.000000  0.000000  -23.721034020385606  2.881998524420632  2.2637347159012844  48.361852378041625  0.968833803267781  -6.081635075954235  16.41688271557889  42.59871718323049  14.235403523657652  11.31895255110942  120.000000
3.9856600000000006  0.000000  0.000000  0.000000  -24.79031434911892  2.808537162371569  3.71320759367291  50.11605486646224  0.5737416937200589  -5.665763442965684  13.835953752721482  45.81548966118234  13.497269615206918  11.23805471109227  120.000000
